DBRep_DrawableShape

CASCADE Topology V1, (c) Matra-Datavision
Locations 18
1
              1               0               0               0 
              0               1               0               0 
              0               0               1               0 
1
              1               0               0               0 
              0               1               0               0 
              0               0               1               0 
1
              1               0               0               0 
              0               1               0               0 
              0               0               1               0 
2  2 1 3 1 0
2  3 -1 2 -1 0
2  1 -1 3 -1 2 -1 0
1
              1               0               0               0 
              0               1               0               0 
              0               0               1               5 
2  7 1 3 1 0
2  2 1 7 -1 0
2  3 -1 7 -1 0
2  7 -1 0
2  1 -1 3 -1 7 -1 0
1
2.22044604925031e-16               0               1               0 
              0               1               0            0.75 
             -1               0 2.22044604925031e-16               2 
2  1 -1 0
2  2 -1 0
2  7 1 2 -1 0
2  13 -1 0
2  1 -1 13 -1 0
Curve2ds 24
2 0 0 1 0 -0 1 2
1 0 0 1 0 
1 6.2831853071795862 -0 0 1 
1 0 -0 0 1 
1 0 5 1 0 
1 0 5 1 0 
1 6.2831853071795862 -0 0 1 
1 0 -0 0 1 
7 0 0  8 65 10  0.38439677449563897 1.2500000000000002  0.41349320997323108 1.250000004939926  0.44158697964141336 1.254433553386004  0.46870338005818835 1.2625622575059881  0.49487409491560552 1.2738579471099414  0.52013873496750174 1.2879322897320673  0.54454559919277501 1.3044993619235428  0.5681516571941897 1.3233711717563521  0.61524662659154017 1.3668519008079876  0.63858985266900237 1.3916824615363494  0.66113370271461336 1.4188779316028932  0.68291028302244172 1.4484473359797161  0.70392451156074221 1.4804505098448237  0.72414143295924915 1.515093185962805  0.74350303262026685 1.5526464949192245  0.7740411275813357 1.6212622589312451  0.78566838226675695 1.6500061174696434  0.7968162560822577 1.6805270251581341  0.80743696160185929 1.7132336156085022  0.81741577268457433 1.7484920726020445  0.82647716933735194 1.7868032092278412  0.83429365192630955 1.8285988357219751  0.84318190000010862 1.8988112179290149  0.8457249592451509 1.9241184587532074  0.84762401599698611 1.9507058894795462  0.84871839421695539 1.9782121157515236  0.8488927748600793 2.0061737650478184  0.84812199341186434 2.0340148068771629  0.84650966153157858 2.0610345051776138  0.84080878696534189 2.1263457098363276  0.83574101308424009 2.1631868909091247  0.82954279590765667 2.1973261511147379  0.82251673176504125 2.2290512395142548  0.81487891361939901 2.2586401169615971  0.80676866877220876 2.2863915685018577  0.7982406489006777 2.3126221117146968  0.77263944587216093 2.3841465124312302  0.75473192527807065 2.4259016086821199  0.73585407500107414 2.4642686932369839  0.71612260156296703 2.4996229584728731  0.69563219179375935 2.5323554323399948  0.67440063860540533 2.5626155525880274  0.65241205887576104 2.5905421333317546  0.60733933710211541 2.6411078573242293  0.58436534672777585 2.6637914402071812  0.56061051198866729 2.6842312670083781  0.53602747616009616 2.7023206824177728  0.51056984306148234 2.7178609730104513  0.48419090012027333 2.7305634159386178  0.45683838968846707 2.740017093590855  0.40467368617870514 2.7503154907139664  0.38019911865374617 2.7523049469273722  0.354977304877378 2.7512497931220099  0.32901950406101965 2.7466905995228639  0.30239770383156556 2.7380845756905448  0.27526027714414081 2.7248118217632817  0.24785781882973781 2.7062275810696699  0.17526788930035456 2.641319135184041  0.1299648726363308 2.5844837121033661  0.088721114991967095 2.510660656765789  0.053785672272797722 2.4222294384821099  0.026797525859949139 2.3227265511642745  0.0087390348489136387 2.2162372912807728  -3.6644738627273565e-10 2.1070944744844251  0 1.9999999948674194 
 0 9 0.12441973665893966 7 0.25620984638597849 7 0.34361455933129814 7 0.38831506503769647 7 0.45873925180690228 7 0.5893597747048902 7 0.7165757974191892 7 0.8230854053669 7 1 9
7 0 0  8 65 10  0 1.8540496217739157  0.071928312511796585 1.8322272931674233  0.14041219411487321 1.8093631035372311  0.20609652836720005 1.7856825233169453  0.26945745122738618 1.7613823429995887  0.33088632199454676 1.736626680904386  0.39075220334023347 1.7115447586711154  0.44944285043242971 1.6862304444820366  0.56875789654548758 1.6337468923897795  0.62915137792035192 1.6066189427916187  0.68907833313507194 1.579433863428086  0.74898034020984872 1.5522882555785273  0.80927066270470083 1.5252972083663501  0.87048232480924126 1.4986212558549961  0.93319026022700924 1.472449303338766  1.0420104448861638 1.4302901618045287  1.0862104191217166 1.4139930334955317  1.1318772013296967 1.3981548259145573  1.1795963261066946 1.382873343255953  1.2298529681194428 1.3683457387146947  1.2833237626679606 1.3550154444744709  1.3406031877312414 1.3434253858564043  1.4355464983759409 1.3301861714679273  1.4695683308728817 1.3263844581090944  1.5051318303038885 1.3235356417279451  1.5417906003819919 1.3218896727520386  1.5790013047744007 1.3216277991496916  1.6160910989208483 1.3227880906088305  1.6522053630257396 1.3252059386766146  1.7398705276433186 1.3337287888791256  1.7897025731965575 1.3412867300483589  1.8364286786239785 1.3504865713455463  1.8804743130570221 1.3608419789086397  1.9222159880497447 1.372006116367358  1.9620509083071751 1.3837553726055727  2.0004128654520179 1.3959918990231925  2.1072163209096204 1.4323374779007021  2.1723415569107001 1.4573150105799038  2.2350955700364263 1.4830955254364468  2.2961312994336356 1.5094095956488021  2.3561535980338357 1.536022306906226  2.4156069926996091 1.5628054266861657  2.4750050954555811 1.5896625487325098  2.5932577163375456 1.6427405301928428  2.6519139240284222 1.6688810116217712  2.7113273249127752 1.69490243057913  2.7718875604388562 1.7207140227571245  2.8339565423712392 1.7462023944752685  2.897914234191235 1.7712297653257176  2.9642209989511983 1.7956332952537313  3.0914963452576623 1.8389776939985092  3.1515140529549943 1.8581391314490743  3.2139268257023592 1.8766076945795176  3.2790527431278442 1.8942161474006163  3.347156353841092 1.9107468286098528  3.4184674725460038 1.9259543228421312  3.4931600094698481 1.9396049523206329  3.7009261651481609 1.9713695023033466  3.840902537376385 1.9866150730976682  3.9849540588249082 1.9954417880210125  4.1309750003484869 1.999142381142522  4.2776452164322087 2.000001114738164  4.4240734419981482 1.9999997373054526  4.5695963477387904 2  4.712388987228131 2 
 0 9 0.12441973665893966 7 0.25620984638597849 7 0.34361455933129814 7 0.38831506503769647 7 0.45873925180690228 7 0.5893597747048902 7 0.7165757974191892 7 0.8230854053669 7 1 9
7 0 0  8 23 4  0 1.9999999948674194  2.57457488597428e-10 1.9247578815444402  0.0043134240361985083 1.8492582095463288  0.012992046731766594 1.7745867409027047  0.026016324657809415 1.7021376556065064  0.043157506228341566 1.6334785536320489  0.063912369253863358 1.5702614473571539  0.087407887556781638 1.5139197366511898  0.12569319901434114 1.4390613381587691  0.13991006280836871 1.4143157463038087  0.15484226657213904 1.3912291626174313  0.17043136937124601 1.3699013835022598  0.18661326793823166 1.3504181795451096  0.20332126371999001 1.3328444191281197  0.22048839172205981 1.3172230037377033  0.25597087088779885 1.2896555674268411  0.27349102867129294 1.2784213839871068  0.29144434803883618 1.2688301321020314  0.31006095642089693 1.2610054470414911  0.32918124431659501 1.2551924330984918  0.34837613909925907 1.2515778819141676  0.36704321412881857 1.2500000029462481  0.38439677449563892 1.2500000000000004 
 0 9 0.47741909747554018 7 0.73604940080285408 7 1 9
7 0 0  8 23 4  4.712388987228131 2  4.8127118049921034 2  4.9133782802731778 1.9999999258213454  5.0144774185320609 2.0000003438245346  5.1157405767770854 1.9997908099988  5.2166654268135879 1.9989468245631994  5.3164094925398793 1.9968407410506863  5.4136266891959854 1.9929780502143244  5.5559458120028422 1.9844017476648037  5.6058964117746468 1.9808059711212964  5.6557774271636081 1.9765580318257441  5.7055556896131021 1.9715924586263824  5.7551917972688109 1.9658524738672003  5.8046488731444175 1.9592928851710114  5.8538957658283879 1.9518815998873054  5.9529217845255999 1.9351475584584437  6.0004269453282735 1.9261715050870138  6.0481312798751787 1.9163366775421813  6.0965919676518112 1.9054120105333201  6.1454662573490708 1.8933724869888764  6.1937953744325087 1.8804268797594126  6.2402861571573904 1.8670647908572151  6.2831853071795862 1.8540496217739157 
 0 9 0.47741909747554018 7 0.73604940080285408 7 1 9
1 6.2831853071795862 -0 0 1 
1 0 -0 0 1 
1 0 10 1 0 
1 0 5 1 0 
1 6.2831853071795862 -0 0 1 
1 0 -0 0 1 
1 0 0 1 0 
2 0 0 1 0 -0 1 0.75
1 6.2831853071795862 -0 0 1 
1 0 -0 0 1 
1 0 10 1 0 
2 0 0 1 0 -0 1 2
Curves 12
2 0 0 0 0 0 1 1 0 -0 -0 1 0 2
1 2 -4.898425415289509e-16 0 0 0 1 
2 0 0 0 0 0 1 1 0 -0 -0 1 0 2
1 2 -4.898425415289509e-16 0 0 0 1 
7 0 0  8 65 10  1.854049621773916 0.75000000000000011 1.2500000000000002  1.8322272931674235 0.80394623438384738 1.250000004939926  1.8093631035372315 0.85530783868646898 1.254433553386004  1.7856825233169458 0.90414954792535851 1.2625622575059881  1.7613823429995887 0.95056189334006014 1.2738579471099414  1.7366266809043858 0.99465777929780697 1.2879322897320673  1.7115447586711159 1.0365683480795529 1.3044993619235428  1.6862304444820368 1.076438132546397 1.3233711717563521  1.6337468923897798 1.1546507998703599 1.3668519008079876  1.6066189427916278 1.1926705119668828 1.3916824615363494  1.579433863428058 1.2286743530050219 1.4188779316028932  1.5522882555785675 1.2627682991428832 1.4484473359797161  1.5252972083663217 1.2950149314050199 1.4804505098448237  1.4986212558550052 1.3254223942728147 1.515093185962805  1.472449303338766 1.3539725044546975 1.5526464949192245  1.4302901618045287 1.3981642204261466 1.6212622589312451  1.4139930334955317 1.4147561047711605 1.6500061174696434  1.3981548259145575 1.4304531264336922 1.6805270251581341  1.3828733432559526 1.4452117320448321 1.7132336156085022  1.3683457387146951 1.4588997404032573 1.7484920726020445  1.3550154444744709 1.4711789429788271 1.7868032092278412  1.3434253858564043 1.4816701942243766 1.8285988357219751  1.3301861714679273 1.4935330361124535 1.8988112179290149  1.3263844581090944 1.4969117975438908 1.9241184587532074  1.3235356417279451 1.4994237951154683 1.9507058894795462  1.3218896727520386 1.5008665119697455 1.9782121157515236  1.3216277991496916 1.5010968415343884 2.0061737650478184  1.3227880906088305 1.5000818893257459 2.0340148068771629  1.3252059386766146 1.4979482030293529 2.0610345051776138  1.3337287888791256 1.4903745046127663 2.1263457098363276  1.3412867300483589 1.4836211644860799 2.1631868909091247  1.3504865713455463 1.475312050136282 2.1973261511147379  1.3608419789086397 1.4658119051674379 2.2290512395142548  1.372006116367358 1.4553837197399062 2.2586401169615971  1.3837553726055727 1.4441988911814334 2.2863915685018577  1.3959918990231925 1.4323157155520843 2.3126221117146968  1.4323374779007021 1.3962507008967693 2.3841465124312302  1.4573150105798869 1.3705750329527349 2.4259016086821199  1.4830955254365059 1.3429732942172166 2.4642686932369839  1.5094095956487132 1.3135380908581664 2.4996229584728731  1.5360223069062937 1.2823437141690961 2.5323554323399948  1.5628054266861424 1.2493639046827261 2.5626155525880274  1.5896625487325093 1.2145198784697842 2.5905421333317546  1.6427405301928428 1.1416574816080662 2.6411078573242293  1.6688810116217716 1.1038531699678771 2.6637914402071812  1.6949024305791303 1.064071274490836 2.6842312670083781  1.7207140227571232 1.0221818518089865 2.7023206824177728  1.7462023944752676 0.97805535111430852 2.7178609730104513  1.7712297653257183 0.93156257477003612 2.7305634159386178  1.7956332952537313 0.88256769295360793 2.740017093590855  1.838977693998509 0.78766833433354577 2.7503154907139664  1.8581391314490852 0.74260698413152193 2.7523049469273722  1.8766076945794989 0.69563116784325807 2.7512497931220099  1.8942161474006163 0.64674552161054755 2.7466905995228639  1.9107468286098712 0.59607913199338258 2.7380845756905448  1.9259543228421188 0.54392993992521388 2.7248118217632817  1.9396049523206329 0.49082502106585052 2.7062275810696699  1.9713695023033466 0.34916272953871547 2.641319135184041  1.9866150730976384 0.25972596627376526 2.5844837121033661  1.9954417880211028 0.1774561750739565 2.510660656765789  1.9991423811423976 0.10756435534156092 2.4222294384821099  2.0000011147382519 0.053597735507390991 2.3227265511642745  1.9999997373054259 0.017477517548482483 2.2162372912807728  2 -7.3289526238801294e-10 2.1070944744844251  2 -4.898425415289509e-16 1.9999999948674194 
 0 9 0.12441973665893966 7 0.25620984638597849 7 0.34361455933129814 7 0.38831506503769647 7 0.45873925180690228 7 0.5893597747048902 7 0.7165757974191892 7 0.8230854053669 7 1 9
7 0 0  8 23 4  2 -4.89842541528951e-16 1.9999999948674194  2 5.1491448735231447e-10 1.9247578815444402  1.9999999258213412 0.0086268043092433341 1.8492582095463288  2.0000003438245511 0.02598428745975714 1.7745867409027047  1.9997908099987727 0.052032237407852809 1.7021376556065064  1.9989468245632223 0.086315471659505996 1.6334785536320489  1.9968407410506777 0.12780410071925499 1.5702614473571539  1.9929780502143246 0.17465725131320881 1.5139197366511898  1.9844017476648048 0.25074606342240424 1.4390613381587691  1.9808059711212964 0.27895453710665391 1.4143157463038087  1.9765580318257441 0.30852179826314891 1.3912291626174313  1.9715924586263824 0.33931177188748163 1.3699013835022598  1.9658524738672012 0.37117414059812687 1.3504181795451096  1.9592928851710121 0.40395116809663856 1.3328444191281197  1.9518815998873056 0.43748339561646898 1.3172230037377033  1.9351475584584437 0.50644713368543948 1.2896555674268411  1.9261715050870141 0.5403262061322468 1.2784213839871068  1.916336677542184 0.57487046527517394 1.2688301321020314  1.9054120105333154 0.61048198946341181 1.2610054470414911  1.8933724869888808 0.64679976883578305 1.2551924330984918  1.8804268797594113 0.682957810475187 1.2515778819141676  1.8670647908572153 0.7178256374833526 1.2500000029462481  1.854049621773916 0.74999999999999978 1.2500000000000004 
 0 9 0.47741909747554018 7 0.73604940080285408 7 1 9
1 2 -4.898425415289509e-16 0 0 0 1 
2 0 0 10 0 0 1 1 0 -0 -0 1 0 2
1 0.75 -1.8369095307335659e-16 0 0 0 1 
2 0 0 0 0 0 1 1 0 -0 -0 1 0 0.75
1 2 -4.898425415289509e-16 0 0 0 1 
2 0 0 10 0 0 1 1 0 -0 -0 1 0 2
Polygon3D 0
PolygonOnTriangulations 24
26 30 31 32 33 34 35 36 37 38 39 40 41 42 43 44 45 46 47 48 49 50 51 52 53 54 29 
p 0.0394318960038986 1 0 0.251327412287184 0.502654824574367 0.753982236861551 1.00530964914873 1.25663706143592 1.5079644737231 1.75929188601029 2.01061929829747 2.26194671058465 2.51327412287184 2.76460153515902 3.0159289474462 3.26725635973339 3.51858377202057 3.76991118430776 4.02123859659494 4.27256600888212 4.52389342116931 4.77522083345649 5.02654824574367 5.27787565803086 5.52920307031804 5.78053048260523 6.03185789489241 6.28318530717959 
26 1 2 3 4 5 6 7 8 9 10 11 12 13 14 15 16 17 18 19 20 21 22 23 24 25 1 
p 0.0394318960038986 1 0 0.251327412287184 0.502654824574367 0.753982236861551 1.00530964914873 1.25663706143592 1.5079644737231 1.75929188601029 2.01061929829747 2.26194671058465 2.51327412287184 2.76460153515902 3.0159289474462 3.26725635973339 3.51858377202057 3.76991118430776 4.02123859659494 4.27256600888212 4.52389342116931 4.77522083345649 5.02654824574367 5.27787565803086 5.52920307031804 5.78053048260523 6.03185789489241 6.28318530717959 
2 28 3 
p 0.0394318960038986 1 2 5 
2 1 2 
p 0.0394318960038986 1 2 5 
26 2 4 5 6 7 8 9 10 11 12 13 14 15 16 17 18 19 20 21 22 23 24 25 26 27 3 
p 0.0394318960038986 1 0 0.251327412287184 0.502654824574367 0.753982236861551 1.00530964914873 1.25663706143592 1.5079644737231 1.75929188601029 2.01061929829747 2.26194671058465 2.51327412287184 2.76460153515902 3.0159289474462 3.26725635973339 3.51858377202057 3.76991118430776 4.02123859659494 4.27256600888212 4.52389342116931 4.77522083345649 5.02654824574367 5.27787565803086 5.52920307031804 5.78053048260523 6.03185789489241 6.28318530717959 
26 3 4 5 6 7 8 9 10 11 12 13 14 15 16 17 18 19 20 21 22 23 24 25 26 27 1 
p 0.0394318960038986 1 0 0.251327412287184 0.502654824574367 0.753982236861551 1.00530964914873 1.25663706143592 1.5079644737231 1.75929188601029 2.01061929829747 2.26194671058465 2.51327412287184 2.76460153515902 3.0159289474462 3.26725635973339 3.51858377202057 3.76991118430776 4.02123859659494 4.27256600888212 4.52389342116931 4.77522083345649 5.02654824574367 5.27787565803086 5.52920307031804 5.78053048260523 6.03185789489241 6.28318530717959 
2 29 28 
p 0.0394318960038986 1 0 2 
2 30 1 
p 0.0394318960038986 1 0 2 
23 55 56 57 58 59 60 61 62 63 64 65 66 67 68 69 70 71 72 73 74 75 76 1 
p 0.0394318960038986 1 0 0.0474691483348507 0.109355200932698 0.180558923434974 0.25176264593725 0.303670159641409 0.334890074359369 0.361168253172099 0.385499900220924 0.413892453365973 0.447686407600451 0.492745013246423 0.559308033319343 0.63534443034692 0.696933911939258 0.748258479932872 0.794450591127125 0.83186620119447 0.86651028459016 0.90115436798585 0.93579845138154 0.96789922569077 1 
23 28 30 31 32 33 34 35 36 37 38 39 40 41 42 43 44 45 46 47 48 49 50 29 
p 0.0394318960038986 1 0 0.0474691483348507 0.109355200932698 0.180558923434974 0.25176264593725 0.303670159641409 0.334890074359369 0.361168253172099 0.385499900220924 0.413892453365973 0.447686407600451 0.492745013246423 0.559308033319343 0.63534443034692 0.696933911939258 0.748258479932872 0.794450591127125 0.83186620119447 0.86651028459016 0.90115436798585 0.93579845138154 0.96789922569077 1 
9 1 77 78 79 80 81 82 83 55 
p 0.0394318960038986 1 0 0.13639694918301 0.272793898366019 0.409190847549029 0.545587796732039 0.681984745915048 0.818381695098058 0.909190847549029 1 
9 29 51 52 53 54 55 56 57 2 
p 0.0394318960038986 1 0 0.13639694918301 0.272793898366019 0.409190847549029 0.545587796732039 0.681984745915048 0.818381695098058 0.909190847549029 1 
2 1 2 
p 0.0394318960038986 1 5 10 
2 3 28 
p 0.0394318960038986 1 5 10 
26 28 29 30 31 32 33 34 35 36 37 38 39 40 41 42 43 44 45 46 47 48 49 50 51 52 2 
p 0.0394318960038986 1 0 0.251327412287184 0.502654824574367 0.753982236861551 1.00530964914873 1.25663706143592 1.5079644737231 1.75929188601029 2.01061929829747 2.26194671058465 2.51327412287184 2.76460153515902 3.0159289474462 3.26725635973339 3.51858377202057 3.76991118430776 4.02123859659494 4.27256600888212 4.52389342116931 4.77522083345649 5.02654824574367 5.27787565803086 5.52920307031804 5.78053048260523 6.03185789489241 6.28318530717959 
26 3 4 5 6 7 8 9 10 11 12 13 14 15 16 17 18 19 20 21 22 23 24 25 26 27 1 
p 0.0394318960038986 1 0 0.251327412287184 0.502654824574367 0.753982236861551 1.00530964914873 1.25663706143592 1.5079644737231 1.75929188601029 2.01061929829747 2.26194671058465 2.51327412287184 2.76460153515902 3.0159289474462 3.26725635973339 3.51858377202057 3.76991118430776 4.02123859659494 4.27256600888212 4.52389342116931 4.77522083345649 5.02654824574367 5.27787565803086 5.52920307031804 5.78053048260523 6.03185789489241 6.28318530717959 
2 1 2 
p 0.0394318960038986 1 0 1.85404962177392 
2 3 28 
p 0.0394318960038986 1 0 1.85404962177392 
26 3 4 5 6 7 8 9 10 11 12 13 14 15 16 17 18 19 20 21 22 23 24 25 26 27 1 
p 0.0394318960038986 1 0 0.251327412287184 0.502654824574367 0.753982236861551 1.00530964914873 1.25663706143592 1.5079644737231 1.75929188601029 2.01061929829747 2.26194671058465 2.51327412287184 2.76460153515902 3.0159289474462 3.26725635973339 3.51858377202057 3.76991118430776 4.02123859659494 4.27256600888212 4.52389342116931 4.77522083345649 5.02654824574367 5.27787565803086 5.52920307031804 5.78053048260523 6.03185789489241 6.28318530717959 
26 1 2 3 4 5 6 7 8 9 10 11 12 13 14 15 16 17 18 19 20 21 22 23 24 25 1 
p 0.0394318960038986 1 0 0.251327412287184 0.502654824574367 0.753982236861551 1.00530964914873 1.25663706143592 1.5079644737231 1.75929188601029 2.01061929829747 2.26194671058465 2.51327412287184 2.76460153515902 3.0159289474462 3.26725635973339 3.51858377202057 3.76991118430776 4.02123859659494 4.27256600888212 4.52389342116931 4.77522083345649 5.02654824574367 5.27787565803086 5.52920307031804 5.78053048260523 6.03185789489241 6.28318530717959 
2 1 2 
p 0.0394318960038986 1 5 10 
2 3 28 
p 0.0394318960038986 1 5 10 
26 28 29 30 31 32 33 34 35 36 37 38 39 40 41 42 43 44 45 46 47 48 49 50 51 52 2 
p 0.0394318960038986 1 0 0.251327412287184 0.502654824574367 0.753982236861551 1.00530964914873 1.25663706143592 1.5079644737231 1.75929188601029 2.01061929829747 2.26194671058465 2.51327412287184 2.76460153515902 3.0159289474462 3.26725635973339 3.51858377202057 3.76991118430776 4.02123859659494 4.27256600888212 4.52389342116931 4.77522083345649 5.02654824574367 5.27787565803086 5.52920307031804 5.78053048260523 6.03185789489241 6.28318530717959 
26 1 2 3 4 5 6 7 8 9 10 11 12 13 14 15 16 17 18 19 20 21 22 23 24 25 1 
p 0.0394318960038986 1 0 0.251327412287184 0.502654824574367 0.753982236861551 1.00530964914873 1.25663706143592 1.5079644737231 1.75929188601029 2.01061929829747 2.26194671058465 2.51327412287184 2.76460153515902 3.0159289474462 3.26725635973339 3.51858377202057 3.76991118430776 4.02123859659494 4.27256600888212 4.52389342116931 4.77522083345649 5.02654824574367 5.27787565803086 5.52920307031804 5.78053048260523 6.03185789489241 6.28318530717959 
Surfaces 7
1 0 0 0 0 0 1 1 0 -0 -0 1 0 
2 0 0 0 0 0 1 1 0 -0 -0 1 0 2
2 0 0 0 0 0 1 1 0 -0 -0 1 0 2
2 0 0 0 0 0 1 1 0 -0 -0 1 0 0.75
2 0 0 0 0 0 1 1 0 -0 -0 1 0 2
1 0 0 0 0 0 1 1 0 -0 -0 1 0 
1 0 0 10 0 0 1 1 0 -0 -0 1 0 
Triangulations 7
26 25 1 2.22044604925031e-16
2 -4.89842541528951e-16 0 1.93716632225726 0.49737977432971 0 1.75261336008773 0.963507348203431 0 1.45793725484282 1.36909421185738 0 1.07165358995799 1.68865585100403 0 0.618033988749894 1.90211303259031 0 0.125581039058625 1.99605345685654 0 -0.374762629171451 1.96457450145738 0 -0.851558583130147 1.80965410493204 0 -1.27484797949738 1.54102648555158 0 -1.6180339887499 1.17557050458494 0 -1.8595529717765 0.736249105369352 0 -1.98422940262896 0.250666467128604 0 -1.98422940262896 -0.250666467128614 0 -1.8595529717765 -0.736249105369362 0 -1.61803398874989 -1.17557050458495 0 -1.27484797949737 -1.54102648555158 0 -0.851558583130138 -1.80965410493204 0 -0.374762629171441 -1.96457450145738 0 0.125581039058636 -1.99605345685654 0 0.618033988749905 -1.9021130325903 0 1.071653589958 -1.68865585100402 0 1.45793725484283 -1.36909421185737 0 1.75261336008773 -0.96350734820342 0 1.93716632225727 -0.497379774329697 0 0.0078852986855219 3.33066907387547e-16 0 2 0 1.93716632225726 0.49737977432971 1.75261336008773 0.963507348203431 1.45793725484282 1.36909421185738 1.07165358995799 1.68865585100403 0.618033988749894 1.90211303259031 0.125581039058625 1.99605345685654 -0.374762629171451 1.96457450145738 -0.851558583130147 1.80965410493204 -1.27484797949738 1.54102648555158 -1.6180339887499 1.17557050458494 -1.8595529717765 0.736249105369352 -1.98422940262896 0.250666467128604 -1.98422940262896 -0.250666467128614 -1.8595529717765 -0.736249105369362 -1.61803398874989 -1.17557050458495 -1.27484797949737 -1.54102648555158 -0.851558583130138 -1.80965410493204 -0.374762629171441 -1.96457450145738 0.125581039058636 -1.99605345685654 0.618033988749904 -1.9021130325903 1.071653589958 -1.68865585100402 1.45793725484283 -1.36909421185737 1.75261336008773 -0.96350734820342 1.93716632225727 -0.497379774329697 0.00788529868552179 2.22044604925031e-16 26 1 2 26 2 3 26 3 4 26 4 5 26 5 6 26 6 7 26 7 8 26 8 9 26 9 10 26 10 11 26 11 12 26 12 13 26 13 14 26 14 15 26 15 16 26 16 17 26 17 18 26 18 19 26 19 20 26 20 21 26 21 22 26 22 23 26 23 24 26 24 25 26 25 1 
83 82 1 0.0157705973710445
2 -4.89842541528951e-16 2 2 -4.89842541528951e-16 5 2 -4.89842541528951e-16 5 1.93716632225726 0.49737977432971 5 1.75261336008773 0.963507348203431 5 1.45793725484282 1.36909421185738 5 1.07165358995799 1.68865585100403 5 0.618033988749894 1.90211303259031 5 0.125581039058625 1.99605345685654 5 -0.374762629171451 1.96457450145738 5 -0.851558583130147 1.80965410493204 5 -1.27484797949738 1.54102648555158 5 -1.6180339887499 1.17557050458494 5 -1.8595529717765 0.736249105369352 5 -1.98422940262896 0.250666467128604 5 -1.98422940262896 -0.250666467128614 5 -1.8595529717765 -0.736249105369362 5 -1.61803398874989 -1.17557050458495 5 -1.27484797949737 -1.54102648555158 5 -0.851558583130138 -1.80965410493204 5 -0.374762629171441 -1.96457450145738 5 0.125581039058636 -1.99605345685654 5 0.618033988749905 -1.9021130325903 5 1.071653589958 -1.68865585100402 5 1.45793725484283 -1.36909421185737 5 1.75261336008773 -0.96350734820342 5 1.93716632225727 -0.497379774329697 5 2 -4.89842541528951e-16 2 2 -4.89842541528951e-16 0 2 -4.89842541528951e-16 0 1.93716632225726 0.49737977432971 0 1.75261336008773 0.963507348203431 0 1.45793725484282 1.36909421185738 0 1.07165358995799 1.68865585100403 0 0.618033988749894 1.90211303259031 0 0.125581039058625 1.99605345685654 0 -0.374762629171451 1.96457450145738 0 -0.851558583130147 1.80965410493204 0 -1.27484797949738 1.54102648555158 0 -1.6180339887499 1.17557050458494 0 -1.8595529717765 0.736249105369352 0 -1.98422940262896 0.250666467128604 0 -1.98422940262896 -0.250666467128614 0 -1.8595529717765 -0.736249105369362 0 -1.61803398874989 -1.17557050458495 0 -1.27484797949737 -1.54102648555158 0 -0.851558583130138 -1.80965410493204 0 -0.374762629171441 -1.96457450145738 0 0.125581039058636 -1.99605345685654 0 0.618033988749905 -1.9021130325903 0 1.071653589958 -1.68865585100402 0 1.45793725484283 -1.36909421185737 0 1.75261336008773 -0.96350734820342 0 1.93716632225727 -0.497379774329697 0 1.85404962177392 0.75 1.25 1.78385433682514 0.904358170064122 1.26605623018221 1.68535354292564 1.07683955506104 1.32496236781249 1.56845098491613 1.24095185665802 1.43302004963933 1.45396972958936 1.37330696638189 1.58288079251382 1.37871212885437 1.44884535573064 1.7277589698494 1.34239319559439 1.48255877088826 1.8391967932416 1.32438529349366 1.49866727200004 1.95530867612665 1.32695179113392 1.49639532046291 2.07344410075651 1.35067720207428 1.47501562493959 2.19196963281327 1.39308237142643 1.4350336293977 2.30533417743352 1.46001760411369 1.3668754883775 2.42657309661105 1.56714713526307 1.24259802374917 2.56555036739476 1.69189461145746 1.06653301902494 2.67993155319138 1.78958092103416 0.892972674182993 2.73624651014776 1.8645821403254 0.723417880000724 2.74952879125377 1.92259391332062 0.551028703654453 2.72312546798949 1.95908741117506 0.402463145710005 2.66461882542171 1.9819190654799 0.268322138609213 2.57487946661841 1.99418597275637 0.152388755258378 2.45316754567074 1.99893028594343 0.0654040951065474 2.30631426486494 1.9999330834602 0.0163606367509224 2.15579890041126 1.99990241440327 0.0197570009082195 1.82898782970651 1.99847718869845 0.0780316272740928 1.66689565205511 1.99280837941503 0.169454322215289 1.52516664340374 1.97985842502918 0.283126505174628 1.41303395491814 1.95639602636219 0.415348758062688 1.32880067705606 1.92059592691505 0.557952762532458 1.27500492474027 1.8895484588161 0.655443832790363 1.25598445835125 0 2 0 5 6.28318530717959 5 0.251327412287184 5 0.502654824574367 5 0.753982236861551 5 1.00530964914873 5 1.25663706143592 5 1.5079644737231 5 1.75929188601029 5 2.01061929829747 5 2.26194671058465 5 2.51327412287184 5 2.76460153515902 5 3.0159289474462 5 3.26725635973339 5 3.51858377202057 5 3.76991118430776 5 4.02123859659494 5 4.27256600888212 5 4.52389342116931 5 4.77522083345649 5 5.02654824574367 5 5.27787565803086 5 5.52920307031804 5 5.78053048260523 5 6.03185789489241 5 6.28318530717959 2 6.28318530717959 0 0 0 0.251327412287184 0 0.502654824574367 0 0.753982236861551 0 1.00530964914873 0 1.25663706143592 0 1.5079644737231 0 1.75929188601029 0 2.01061929829747 0 2.26194671058465 0 2.51327412287184 0 2.76460153515902 0 3.0159289474462 0 3.26725635973339 0 3.51858377202057 0 3.76991118430776 0 4.02123859659494 0 4.27256600888212 0 4.52389342116931 0 4.77522083345649 0 5.02654824574367 0 5.27787565803086 0 5.52920307031804 0 5.78053048260523 0 6.03185789489241 0 0.384396774495639 1.25 0.469206951099125 1.26605623018221 0.568560743239182 1.32496236781249 0.669349434235722 1.43302004963933 0.756875702796796 1.58288079251382 0.810196545131848 1.7277589698494 0.834974483475058 1.8391967932416 0.847055206234873 1.95530867612665 0.845341388987256 2.07344410075651 0.829372605646909 2.19196963281327 0.800230716625051 2.30533417743352 0.752461497839109 2.42657309661105 0.670399421255042 2.56555036739476 0.562457246965946 2.67993155319138 0.462834671783537 2.73624651014776 0.370100297868653 2.74952879125377 0.279124722177442 2.72312546798949 0.202615041091059 2.66461882542171 0.134566838285835 2.57487946661841 0.0762682901386794 2.45316754567074 0.0327078838977434 2.30631426486494 0.00818040630759925 2.15579890041126 0.00987866061326515 1.82898782970651 0.0390257182844316 1.66689565205511 0.084828861359223 1.52516664340374 0.142040393012228 1.41303395491814 0.209196902737114 1.32880067705606 0.282728005258669 1.27500492474027 0.333891317108493 1.25598445835125 34 61 33 25 24 51 34 62 61 25 51 52 63 62 34 1 30 77 26 25 52 6 5 67 26 52 53 26 53 54 78 77 30 6 65 64 6 66 65 6 67 66 27 26 54 28 27 54 79 78 30 7 6 64 28 54 29 7 63 34 3 27 28 7 64 63 8 34 35 8 7 34 80 30 31 80 79 30 9 35 36 9 8 35 81 80 31 10 36 37 82 81 31 10 9 36 2 74 73 2 75 74 11 37 38 2 76 75 11 38 39 2 1 76 11 10 37 12 11 39 83 82 31 55 83 31 13 39 40 13 40 41 13 12 39 14 13 41 32 55 31 56 55 32 15 41 42 15 14 41 16 42 43 4 71 70 4 72 71 4 73 72 16 15 42 4 2 73 57 56 32 17 16 43 17 43 44 33 57 32 18 17 44 18 44 45 18 45 46 58 57 33 19 18 46 59 58 33 20 19 46 20 46 47 5 4 70 5 68 67 5 69 68 5 70 69 21 20 47 21 47 48 60 59 33 22 21 48 22 48 49 61 60 33 23 22 49 23 49 50 23 50 51 24 23 51 
52 50 1 0.0157705973710445
2 -4.89842541528951e-16 5 2 -4.89842541528951e-16 10 2 -4.89842541528951e-16 5 1.93716632225726 0.49737977432971 5 1.75261336008773 0.963507348203431 5 1.45793725484282 1.36909421185738 5 1.07165358995799 1.68865585100403 5 0.618033988749894 1.90211303259031 5 0.125581039058625 1.99605345685654 5 -0.374762629171451 1.96457450145738 5 -0.851558583130147 1.80965410493204 5 -1.27484797949738 1.54102648555158 5 -1.6180339887499 1.17557050458494 5 -1.8595529717765 0.736249105369352 5 -1.98422940262896 0.250666467128604 5 -1.98422940262896 -0.250666467128614 5 -1.8595529717765 -0.736249105369362 5 -1.61803398874989 -1.17557050458495 5 -1.27484797949737 -1.54102648555158 5 -0.851558583130138 -1.80965410493204 5 -0.374762629171441 -1.96457450145738 5 0.125581039058636 -1.99605345685654 5 0.618033988749905 -1.9021130325903 5 1.071653589958 -1.68865585100402 5 1.45793725484283 -1.36909421185737 5 1.75261336008773 -0.96350734820342 5 1.93716632225727 -0.497379774329697 5 2 -4.89842541528951e-16 10 1.93716632225726 0.49737977432971 10 1.75261336008773 0.963507348203431 10 1.45793725484282 1.36909421185738 10 1.07165358995799 1.68865585100403 10 0.618033988749894 1.90211303259031 10 0.125581039058625 1.99605345685654 10 -0.374762629171451 1.96457450145738 10 -0.851558583130147 1.80965410493204 10 -1.27484797949738 1.54102648555158 10 -1.6180339887499 1.17557050458494 10 -1.8595529717765 0.736249105369352 10 -1.98422940262896 0.250666467128604 10 -1.98422940262896 -0.250666467128614 10 -1.8595529717765 -0.736249105369362 10 -1.61803398874989 -1.17557050458495 10 -1.27484797949737 -1.54102648555158 10 -0.851558583130138 -1.80965410493204 10 -0.374762629171441 -1.96457450145738 10 0.125581039058636 -1.99605345685654 10 0.618033988749905 -1.9021130325903 10 1.071653589958 -1.68865585100402 10 1.45793725484283 -1.36909421185737 10 1.75261336008773 -0.96350734820342 10 1.93716632225727 -0.497379774329697 10 6.28318530717959 5 6.28318530717959 10 0 5 0.251327412287184 5 0.502654824574367 5 0.753982236861551 5 1.00530964914873 5 1.25663706143592 5 1.5079644737231 5 1.75929188601029 5 2.01061929829747 5 2.26194671058465 5 2.51327412287184 5 2.76460153515902 5 3.0159289474462 5 3.26725635973339 5 3.51858377202057 5 3.76991118430776 5 4.02123859659494 5 4.27256600888212 5 4.52389342116931 5 4.77522083345649 5 5.02654824574367 5 5.27787565803086 5 5.52920307031804 5 5.78053048260523 5 6.03185789489241 5 0 10 0.251327412287184 10 0.502654824574367 10 0.753982236861551 10 1.00530964914873 10 1.25663706143592 10 1.5079644737231 10 1.75929188601029 10 2.01061929829747 10 2.26194671058465 10 2.51327412287184 10 2.76460153515902 10 3.0159289474462 10 3.26725635973339 10 3.51858377202057 10 3.76991118430776 10 4.02123859659494 10 4.27256600888212 10 4.52389342116931 10 4.77522083345649 10 5.02654824574367 10 5.27787565803086 10 5.52920307031804 10 5.78053048260523 10 6.03185789489241 10 48 22 23 48 23 24 48 47 22 28 3 4 49 48 24 29 4 5 29 28 4 50 24 25 50 49 24 30 29 5 51 25 26 51 26 27 51 50 25 31 5 6 31 6 7 52 27 1 31 30 5 52 51 27 2 52 1 32 31 7 33 7 8 33 32 7 34 8 9 34 33 8 35 9 10 35 34 9 36 10 11 36 11 12 36 35 10 37 36 12 38 12 13 38 13 14 38 37 12 39 38 14 40 14 15 40 39 14 41 40 15 41 15 16 42 41 16 42 16 17 43 42 17 43 17 18 43 18 19 44 43 19 45 19 20 45 44 19 46 20 21 46 45 20 47 21 22 47 46 21 
57 55 1 0.00518731308341245
1.66533453693774e-16 0.75 1.25 1.85404962177392 0.75 1.25 1.66533453693774e-16 0.75 1.25 1.61301499012383e-16 0.936517415373641 1.27356262915353 1.45934377922629e-16 1.11131525557629 1.3427699899671 1.21397663158897e-16 1.26341032944652 1.45327352943394 8.92330867495176e-17 1.38324594412651 1.59812990376575 5.14616673233292e-17 1.46329238722137 1.76823725421879 1.04567220764428e-17 1.4985200463212 1.95290711035302 -3.12052574756403e-17 1.48671543804652 2.14053598593929 -7.09064959356198e-17 1.42862028934951 2.31933446867381 -1.06152418480114e-16 1.32788493208184 2.47806799231152 -1.34728394170216e-16 1.19083893921935 2.60676274578121 -1.5483888935823e-16 1.02609341451351 2.69733236441619 -1.65220287670266e-16 0.843999925173226 2.74408602598586 -1.65220287670266e-16 0.65600007482677 2.74408602598586 -1.5483888935823e-16 0.473906585486489 2.69733236441619 -1.34728394170216e-16 0.309161060780643 2.60676274578121 -1.06152418480113e-16 0.172115067918156 2.47806799231151 -7.0906495935619e-17 0.0713797106504841 2.3193344686738 -3.12052574756394e-17 0.0132845619534829 2.14053598593929 1.04567220764437e-17 0.00147995367879661 1.95290711035301 5.14616673233301e-17 0.036707612778636 1.76823725421879 8.92330867495184e-17 0.116754055873491 1.59812990376575 1.21397663158898e-16 0.236589670553487 1.45327352943394 1.45934377922629e-16 0.388684744423718 1.3427699899671 1.61301499012384e-16 0.563482584626364 1.27356262915353 1.85404962177392 0.75 1.25 2 -4.89842541528951e-16 2 1.78385433682514 0.904358170064122 1.26605623018221 1.68535354292564 1.07683955506104 1.32496236781249 1.56845098491613 1.24095185665802 1.43302004963933 1.45396972958936 1.37330696638189 1.58288079251382 1.37871212885437 1.44884535573064 1.7277589698494 1.34239319559439 1.48255877088826 1.8391967932416 1.32438529349366 1.49866727200004 1.95530867612665 1.32695179113392 1.49639532046291 2.07344410075651 1.35067720207428 1.47501562493959 2.19196963281327 1.39308237142643 1.4350336293977 2.30533417743352 1.46001760411369 1.3668754883775 2.42657309661105 1.56714713526307 1.24259802374917 2.56555036739476 1.69189461145746 1.06653301902494 2.67993155319138 1.78958092103416 0.892972674182993 2.73624651014776 1.8645821403254 0.723417880000724 2.74952879125377 1.92259391332062 0.551028703654453 2.72312546798949 1.95908741117506 0.402463145710005 2.66461882542171 1.9819190654799 0.268322138609213 2.57487946661841 1.99418597275637 0.152388755258378 2.45316754567074 1.99893028594343 0.0654040951065474 2.30631426486494 1.9999330834602 0.0163606367509224 2.15579890041126 1.99990241440327 0.0197570009082195 1.82898782970651 1.99847718869845 0.0780316272740928 1.66689565205511 1.99280837941503 0.169454322215289 1.52516664340374 1.97985842502918 0.283126505174628 1.41303395491814 1.95639602636219 0.415348758062688 1.32880067705606 1.92059592691505 0.557952762532458 1.27500492474027 1.8895484588161 0.655443832790363 1.25598445835125 6.28318530717959 0 6.28318530717959 1.85404962177392 0 0 0.251327412287184 0 0.502654824574367 0 0.753982236861551 0 1.00530964914873 0 1.25663706143592 0 1.5079644737231 0 1.75929188601029 0 2.01061929829747 0 2.26194671058465 0 2.51327412287184 0 2.76460153515902 0 3.0159289474462 0 3.26725635973339 0 3.51858377202057 0 3.76991118430776 0 4.02123859659494 0 4.27256600888212 0 4.52389342116931 0 4.77522083345649 0 5.02654824574367 0 5.27787565803086 0 5.52920307031804 0 5.78053048260523 0 6.03185789489241 0 0 1.85404962177392 4.71238898722813 2 0.207292138157157 1.78385433682514 0.450911296801871 1.68535354292564 0.713656669724788 1.56845098491613 0.981039502282538 1.45396972958936 1.19932366588973 1.37871212885437 1.35471444147568 1.34239319559439 1.51117257498065 1.32438529349366 1.66887897563378 1.32695179113392 1.82963647447024 1.35067720207428 1.99008652833837 1.39308237142643 2.17579882758645 1.46001760411369 2.42502897984736 1.56714713526307 2.70589373164642 1.69189461145746 2.94978839041222 1.78958092103416 3.17704288569511 1.8645821403254 3.41010257076614 1.92259391332062 3.6234010186301 1.95908741117506 3.83900604910074 1.9819190654799 4.06359810370056 1.99418597275638 4.29166762595657 1.99893028594343 4.50313329427575 1.9999330834602 4.94242872608724 1.99990241440327 5.17260216818309 1.99847718869845 5.39795486136735 1.99280837941503 5.61125480942459 1.97985842502918 5.82066874678206 1.95639602636219 6.02423811883755 1.92059592691505 6.15677401231635 1.8895484588161 29 21 22 29 50 21 51 22 23 51 29 22 30 3 4 30 28 3 52 23 24 52 51 23 31 4 5 31 30 4 53 24 25 53 52 24 32 5 6 32 31 5 54 25 26 54 53 25 33 6 7 33 32 6 55 26 27 55 54 26 34 7 8 56 55 27 34 33 7 57 27 1 35 8 9 35 34 8 57 56 27 2 57 1 36 35 9 37 9 10 37 36 9 38 10 11 38 37 10 39 38 11 40 39 11 40 11 12 41 40 12 41 12 13 42 41 13 42 13 14 43 14 15 43 42 14 44 15 16 44 43 15 45 16 17 45 44 16 46 17 18 46 45 17 47 18 19 47 46 18 48 19 20 48 47 19 49 48 20 50 20 21 50 49 20 
52 50 1 0.0157705973710445
2 -4.89842541528951e-16 10 2 -4.89842541528951e-16 15 2 -4.89842541528951e-16 10 1.93716632225726 0.49737977432971 10 1.75261336008773 0.963507348203431 10 1.45793725484282 1.36909421185738 10 1.07165358995799 1.68865585100403 10 0.618033988749894 1.90211303259031 10 0.125581039058625 1.99605345685654 10 -0.374762629171451 1.96457450145738 10 -0.851558583130147 1.80965410493204 10 -1.27484797949738 1.54102648555158 10 -1.6180339887499 1.17557050458494 10 -1.8595529717765 0.736249105369352 10 -1.98422940262896 0.250666467128604 10 -1.98422940262896 -0.250666467128614 10 -1.8595529717765 -0.736249105369362 10 -1.61803398874989 -1.17557050458495 10 -1.27484797949737 -1.54102648555158 10 -0.851558583130138 -1.80965410493204 10 -0.374762629171441 -1.96457450145738 10 0.125581039058636 -1.99605345685654 10 0.618033988749905 -1.9021130325903 10 1.071653589958 -1.68865585100402 10 1.45793725484283 -1.36909421185737 10 1.75261336008773 -0.96350734820342 10 1.93716632225727 -0.497379774329697 10 2 -4.89842541528951e-16 15 1.93716632225726 0.49737977432971 15 1.75261336008773 0.963507348203431 15 1.45793725484282 1.36909421185738 15 1.07165358995799 1.68865585100403 15 0.618033988749894 1.90211303259031 15 0.125581039058625 1.99605345685654 15 -0.374762629171451 1.96457450145738 15 -0.851558583130147 1.80965410493204 15 -1.27484797949738 1.54102648555158 15 -1.6180339887499 1.17557050458494 15 -1.8595529717765 0.736249105369352 15 -1.98422940262896 0.250666467128604 15 -1.98422940262896 -0.250666467128614 15 -1.8595529717765 -0.736249105369362 15 -1.61803398874989 -1.17557050458495 15 -1.27484797949737 -1.54102648555158 15 -0.851558583130138 -1.80965410493204 15 -0.374762629171441 -1.96457450145738 15 0.125581039058636 -1.99605345685654 15 0.618033988749905 -1.9021130325903 15 1.071653589958 -1.68865585100402 15 1.45793725484283 -1.36909421185737 15 1.75261336008773 -0.96350734820342 15 1.93716632225727 -0.497379774329697 15 6.28318530717959 5 6.28318530717959 10 0 5 0.251327412287184 5 0.502654824574367 5 0.753982236861551 5 1.00530964914873 5 1.25663706143592 5 1.5079644737231 5 1.75929188601029 5 2.01061929829747 5 2.26194671058465 5 2.51327412287184 5 2.76460153515902 5 3.0159289474462 5 3.26725635973339 5 3.51858377202057 5 3.76991118430776 5 4.02123859659494 5 4.27256600888212 5 4.52389342116931 5 4.77522083345649 5 5.02654824574367 5 5.27787565803086 5 5.52920307031804 5 5.78053048260523 5 6.03185789489241 5 0 10 0.251327412287184 10 0.502654824574367 10 0.753982236861551 10 1.00530964914873 10 1.25663706143592 10 1.5079644737231 10 1.75929188601029 10 2.01061929829747 10 2.26194671058465 10 2.51327412287184 10 2.76460153515902 10 3.0159289474462 10 3.26725635973339 10 3.51858377202057 10 3.76991118430776 10 4.02123859659494 10 4.27256600888212 10 4.52389342116931 10 4.77522083345649 10 5.02654824574367 10 5.27787565803086 10 5.52920307031804 10 5.78053048260523 10 6.03185789489241 10 48 22 23 48 23 24 48 47 22 28 3 4 49 48 24 29 4 5 29 28 4 50 24 25 50 49 24 30 29 5 51 25 26 51 26 27 51 50 25 31 5 6 31 6 7 52 27 1 31 30 5 52 51 27 2 52 1 32 31 7 33 7 8 33 32 7 34 8 9 34 33 8 35 9 10 35 34 9 36 10 11 36 11 12 36 35 10 37 36 12 38 12 13 38 13 14 38 37 12 39 38 14 40 14 15 40 39 14 41 40 15 41 15 16 42 41 16 42 16 17 43 42 17 43 17 18 43 18 19 44 43 19 45 19 20 45 44 19 46 20 21 46 45 20 47 21 22 47 46 21 
26 25 1 1.38777878078145e-16
0.75 0 6.90253292068385e-31 0.726437370846473 0.186517415373641 0 0.657230010032898 0.361315255576287 0 0.546726470566058 0.513410329446517 0 0.401870096234247 0.633245944126511 0 0.23176274578121 0.713292387221365 0 0.0470928896469844 0.748520046321204 0 -0.140535985939294 0.736715438046516 9.86076131526265e-32 -0.319334468673805 0.678620289349514 0 -0.478067992311518 0.577884932081841 9.86076131526265e-32 -0.606762745781211 0.440838939219354 -9.86076131526265e-32 -0.697332364416189 0.276093414513507 0 -0.744086025985859 0.0939999251732264 0 -0.744086025985858 -0.0939999251732302 0 -0.697332364416188 -0.276093414513511 0 -0.606762745781209 -0.440838939219357 0 -0.478067992311515 -0.577884932081844 4.93038065763132e-32 -0.319334468673802 -0.678620289349516 -4.93038065763132e-32 -0.14053598593929 -0.736715438046517 4.93038065763132e-32 0.0470928896469887 -0.748520046321203 0 0.231762745781214 -0.713292387221364 0 0.401870096234251 -0.633245944126509 -9.86076131526265e-32 0.546726470566062 -0.513410329446513 0 0.6572300100329 -0.361315255576282 0 0.726437370846475 -0.186517415373636 -9.86076131526265e-32 0.0029569870070707 1.11022302462516e-16 0 0.75 0 0.726437370846473 0.186517415373641 0.657230010032898 0.361315255576287 0.546726470566058 0.513410329446517 0.401870096234247 0.633245944126511 0.23176274578121 0.713292387221365 0.0470928896469844 0.748520046321204 -0.140535985939294 0.736715438046516 -0.319334468673805 0.678620289349514 -0.478067992311518 0.577884932081841 -0.606762745781211 0.440838939219354 -0.697332364416189 0.276093414513507 -0.744086025985859 0.0939999251732264 -0.744086025985858 -0.0939999251732302 -0.697332364416188 -0.276093414513511 -0.606762745781209 -0.440838939219357 -0.478067992311515 -0.577884932081844 -0.319334468673802 -0.678620289349516 -0.14053598593929 -0.736715438046517 0.0470928896469887 -0.748520046321203 0.231762745781214 -0.713292387221364 0.401870096234251 -0.633245944126509 0.546726470566062 -0.513410329446513 0.6572300100329 -0.361315255576282 0.726437370846475 -0.186517415373636 0.0029569870070707 1.11022302462516e-16 26 1 2 26 2 3 26 3 4 26 4 5 26 5 6 26 6 7 26 7 8 26 8 9 26 9 10 26 10 11 26 11 12 26 12 13 26 13 14 26 14 15 26 15 16 26 16 17 26 17 18 26 18 19 26 19 20 26 20 21 26 21 22 26 22 23 26 23 24 26 24 25 26 25 1 
26 25 1 2.22044604925031e-16
2 -4.89842541528951e-16 10 1.93716632225726 0.49737977432971 10 1.75261336008773 0.963507348203431 10 1.45793725484282 1.36909421185738 10 1.07165358995799 1.68865585100403 10 0.618033988749894 1.90211303259031 10 0.125581039058625 1.99605345685654 10 -0.374762629171451 1.96457450145738 10 -0.851558583130147 1.80965410493204 10 -1.27484797949738 1.54102648555158 10 -1.6180339887499 1.17557050458494 10 -1.8595529717765 0.736249105369352 10 -1.98422940262896 0.250666467128604 10 -1.98422940262896 -0.250666467128614 10 -1.8595529717765 -0.736249105369362 10 -1.61803398874989 -1.17557050458495 10 -1.27484797949737 -1.54102648555158 10 -0.851558583130138 -1.80965410493204 10 -0.374762629171441 -1.96457450145738 10 0.125581039058636 -1.99605345685654 10 0.618033988749905 -1.9021130325903 10 1.071653589958 -1.68865585100402 10 1.45793725484283 -1.36909421185737 10 1.75261336008773 -0.96350734820342 10 1.93716632225727 -0.497379774329697 10 0.0078852986855219 3.33066907387547e-16 10 2 0 1.93716632225726 0.49737977432971 1.75261336008773 0.963507348203431 1.45793725484282 1.36909421185738 1.07165358995799 1.68865585100403 0.618033988749894 1.90211303259031 0.125581039058625 1.99605345685654 -0.374762629171451 1.96457450145738 -0.851558583130147 1.80965410493204 -1.27484797949738 1.54102648555158 -1.6180339887499 1.17557050458494 -1.8595529717765 0.736249105369352 -1.98422940262896 0.250666467128604 -1.98422940262896 -0.250666467128614 -1.8595529717765 -0.736249105369362 -1.61803398874989 -1.17557050458495 -1.27484797949737 -1.54102648555158 -0.851558583130138 -1.80965410493204 -0.374762629171441 -1.96457450145738 0.125581039058636 -1.99605345685654 0.618033988749904 -1.9021130325903 1.071653589958 -1.68865585100402 1.45793725484283 -1.36909421185737 1.75261336008773 -0.96350734820342 1.93716632225727 -0.497379774329697 0.00788529868552179 2.22044604925031e-16 26 1 2 26 2 3 26 3 4 26 4 5 26 5 6 26 6 7 26 7 8 26 8 9 26 9 10 26 10 11 26 11 12 26 12 13 26 13 14 26 14 15 26 15 16 26 16 17 26 17 18 26 18 19 26 19 20 26 20 21 26 21 22 26 22 23 26 23 24 26 24 25 26 25 1 

TShapes 38
Ve
1e-07
2 -4.89842541528951e-16 0
0 0

0101101
*
Ed
 1e-07 1 1 0
1  1 0 0 6.28318530717959
2  1 1 0 0 6.28318530717959
2  2 2 0 0 6.28318530717959
6  1 2 5
6  2 1 0
0

0101100
+38 6 -38 6 *
Wi

0101000
-37 0 *
Fa
0  1e-07 1 0
2  1
0101000
-36 0 *
Ve
2.00001e-07
2 -4.89842541528951e-16 2
0 0

0101101
*
Ve
1e-07
2 -4.89842541528951e-16 5
0 0

0101101
*
Ed
 1e-07 1 1 0
1  2 0 2 5
3  3 4CN 2 0 2 5
7  3 4 2 5
0

0101000
+34 6 -33 6 *
Ed
 1e-07 1 1 0
1  3 0 0 6.28318530717959
2  5 2 9 0 6.28318530717959
2  6 3 9 0 6.28318530717959
6  5 2 10
6  6 3 11
0

0101100
+33 12 -33 12 *
Ed
 1e-07 1 1 0
1  4 0 0 2
3  7 8CN 2 0 0 2
7  7 8 2 5
0

0101000
+38 6 -34 6 *
Wi

0101000
-32 4 -31 8 +32 4 +30 4 +37 4 -30 4 *
Ve
2.00001e-07
1.85404962177392 0.75 1.25
0 0

0101101
*
Ed
 2.00001e-07 1 1 0
1  5 0 0 1
2  9 2 4 0 1
2  10 4 13 0 1
6  9 2 0
6  10 4 0
0

0101000
+28 14 -34 14 *
Ed
 2.00001e-07 1 1 0
1  6 0 0 1
2  11 2 4 0 1
2  12 4 13 0 1
6  11 2 0
6  12 4 0
0

0101000
+34 14 -28 14 *
Wi

0101000
-27 0 -26 0 *
Fa
0  1e-07 2 4
2  2
0101000
+29 0 +25 0 *
Ve
1e-07
2 -4.89842541528951e-16 10
0 0

0101101
*
Ed
 1e-07 1 1 0
1  7 0 5 10
3  13 14CN 3 0 5 10
7  13 14 3 15
0

0101000
+33 6 -23 6 *
Ed
 1e-07 1 1 0
1  8 0 0 6.28318530717959
2  15 3 0 0 6.28318530717959
2  16 5 16 0 6.28318530717959
6  15 3 15
6  16 5 15
0

0101100
+23 6 -23 6 *
Wi

0101000
+22 2 +31 7 -22 2 -21 2 *
Fa
0  1e-07 3 2
2  3
0101000
+20 0 *
Ve
1e-07
1.66533453693774e-16 0.75 1.25
0 0

0101101
*
Ed
 1e-07 1 1 0
1  9 0 0 1.85404962177392
3  17 18CN 4 0 0 1.85404962177392
7  17 18 4 17
0

0101000
+18 18 -28 18 *
Ed
 1e-07 1 1 0
1  10 0 0 6.28318530717959
2  19 4 0 0 6.28318530717959
2  20 6 0 0 6.28318530717959
6  19 4 17
6  20 6 0
0

0101100
+18 18 -18 18 *
Wi

0101000
+17 13 +16 13 -17 13 -27 0 -26 0 *
Fa
0  1e-07 4 13
2  4
0101000
+15 0 *
Ve
1e-07
2 -4.89842541528951e-16 15
0 0

0101101
*
Ed
 1e-07 1 1 0
1  11 0 5 10
3  21 22CN 5 0 5 10
7  21 22 5 11
0

0101000
+23 12 -13 12 *
Ed
 1e-07 1 1 0
1  12 0 0 6.28318530717959
2  23 5 0 0 6.28318530717959
2  24 7 0 0 6.28318530717959
6  23 5 11
6  24 7 0
0

0101100
+13 12 -13 12 *
Wi

0101000
+12 7 +21 2 -12 7 -11 7 *
Fa
0  1e-07 5 7
2  5
0101000
+10 0 *
Wi

0101000
-16 0 *
Fa
0  1e-07 6 0
2  6
0101000
-8 0 *
Wi

0101000
+11 0 *
Fa
0  1e-07 7 0
2  7
0101000
+6 0 *
Sh

0101000
-35 4 +24 0 +19 3 -14 0 +9 3 +7 13 +5 8 *
So

0100000
+4 0 *
Co

0100000
+3 0 *
Co

1100000
+2 1 *

+1 0 